<?xml version="1.0" standalone="no"?>
<!DOCTYPE svg PUBLIC "-//W3C//DTD SVG 20010904//EN"
 "http://www.w3.org/TR/2001/REC-SVG-20010904/DTD/svg10.dtd">
<svg version="1.0" xmlns="http://www.w3.org/2000/svg"
 width="260.000000pt" height="260.000000pt" viewBox="0 0 260.000000 260.000000"
 preserveAspectRatio="xMidYMid meet">
<metadata>
Created by potrace 1.14, written by Peter Selinger 2001-2017
</metadata>
<g transform="translate(0.000000,260.000000) scale(0.100000,-0.100000)"
fill="#000000" stroke="none">
<path d="M569 2129 c-63 -108 -80 -158 -86 -260 -3 -55 0 -87 12 -114 18 -45
7 -68 -22 -44 -82 66 -221 89 -363 59 -92 -18 -110 -33 -110 -84 0 -35 6 -47
38 -77 121 -115 325 -181 413 -135 14 7 39 16 55 20 16 4 43 14 61 23 l32 17
48 -42 c76 -67 162 -127 246 -172 42 -23 77 -48 77 -55 0 -7 -14 -16 -30 -20
-54 -12 -164 -75 -213 -123 -44 -43 -107 -124 -107 -139 0 -3 -8 -24 -19 -47
-29 -65 -53 -183 -55 -267 -1 -97 7 -108 66 -89 156 48 298 156 382 290 42 67
66 159 66 258 0 53 4 94 11 97 5 4 56 -5 112 -18 190 -47 279 -57 513 -57 167
0 225 -3 238 -13 17 -12 13 -16 -40 -42 -83 -41 -180 -141 -226 -235 -65 -132
-81 -198 -82 -345 l-1 -130 41 -3 c49 -4 193 62 289 130 67 49 165 160 194
222 56 117 63 146 62 271 0 66 3 125 7 131 11 17 135 29 262 26 146 -3 160 0
160 38 l0 29 -72 3 -73 3 -7 130 c-6 126 -16 168 -59 260 -72 153 -217 273
-431 359 -35 14 -70 26 -76 26 -22 0 -26 -27 -24 -152 3 -144 20 -215 80 -338
46 -93 161 -211 245 -253 107 -53 86 -57 -318 -60 -170 -1 -345 2 -387 6 -88
10 -90 13 -59 81 39 86 51 134 56 232 7 128 -6 174 -103 351 -21 37 -144 164
-155 160 -17 -5 -64 -106 -93 -195 -36 -113 -38 -265 -5 -361 22 -63 77 -157
106 -181 18 -15 19 -36 3 -43 -20 -7 -197 55 -280 98 -127 66 -278 181 -278
213 0 8 7 24 17 34 24 27 45 65 79 145 9 19 14 68 14 126 0 99 -22 180 -70
258 -11 19 -26 46 -32 62 -23 52 -49 36 -109 -64z"/>
<path d="M932 1862 c-15 -12 -21 -24 -16 -35 8 -21 24 -13 24 13 0 20 22 32
45 24 8 -4 15 -1 15 5 0 17 -42 13 -68 -7z"/>
<path d="M1605 1811 c-10 -17 4 -31 27 -27 22 3 39 26 20 26 -6 0 -17 3 -25 6
-8 3 -18 1 -22 -5z"/>
<path d="M980 1800 c0 -5 5 -10 10 -10 6 0 10 5 10 10 0 6 -4 10 -10 10 -5 0
-10 -4 -10 -10z"/>
<path d="M920 1746 c0 -14 5 -26 10 -26 6 0 10 9 10 19 0 11 -4 23 -10 26 -6
4 -10 -5 -10 -19z"/>
<path d="M1670 1738 c0 -13 4 -29 9 -36 6 -10 10 -7 15 13 4 14 4 30 1 35 -11
18 -25 10 -25 -12z"/>
<path d="M1610 1726 c0 -9 5 -16 10 -16 6 0 10 4 10 9 0 6 -4 13 -10 16 -5 3
-10 -1 -10 -9z"/>
<path d="M951 1675 c0 -35 2 -37 11 -19 7 15 7 28 -1 40 -9 16 -10 12 -10 -21z"/>
<path d="M1644 1669 c-3 -6 -1 -16 5 -22 8 -8 11 -5 11 11 0 24 -5 28 -16 11z"/>
<path d="M1680 1613 c0 -13 5 -23 10 -23 13 0 13 11 0 30 -8 12 -10 11 -10 -7z"/>
<path d="M1640 1444 c0 -8 5 -12 10 -9 6 3 10 10 10 16 0 5 -4 9 -10 9 -5 0
-10 -7 -10 -16z"/>
<path d="M1790 1334 c0 -8 5 -12 10 -9 6 3 10 10 10 16 0 5 -4 9 -10 9 -5 0
-10 -7 -10 -16z"/>
<path d="M239 1309 c-12 -23 -11 -29 2 -29 5 0 8 4 4 9 -3 6 15 13 39 16 50 8
116 -3 96 -15 -20 -12 26 -23 47 -11 17 10 16 11 -4 17 -13 3 -20 10 -17 15 6
11 9 10 -84 13 -61 2 -75 0 -83 -15z"/>
<path d="M463 1175 c-8 -22 6 -33 17 -15 13 20 12 30 0 30 -6 0 -13 -7 -17
-15z"/>
<path d="M413 1102 c-15 -2 -23 -10 -23 -23 0 -23 22 -25 40 -4 16 20 9 31
-17 27z"/>
<path d="M1427 943 c-12 -12 -7 -22 8 -17 8 4 15 10 15 15 0 11 -14 12 -23 2z"/>
<path d="M1360 900 c0 -5 5 -10 10 -10 6 0 10 5 10 10 0 6 -4 10 -10 10 -5 0
-10 -4 -10 -10z"/>
<path d="M1395 900 c-3 -5 -1 -10 4 -10 6 0 11 5 11 10 0 6 -2 10 -4 10 -3 0
-8 -4 -11 -10z"/>
<path d="M1371 854 c0 -11 3 -14 6 -6 3 7 2 16 -1 19 -3 4 -6 -2 -5 -13z"/>
<path d="M1330 784 c0 -8 5 -12 10 -9 6 4 8 11 5 16 -9 14 -15 11 -15 -7z"/>
<path d="M1198 754 c-5 -4 -8 -24 -8 -45 0 -28 5 -41 19 -49 24 -12 41 -13 22
-1 -8 5 -17 31 -20 56 -4 26 -9 43 -13 39z"/>
<path d="M1297 683 c-12 -12 -7 -33 8 -33 17 0 19 9 7 28 -5 7 -11 9 -15 5z"/>
</g>
</svg>
